<svg xmlns="http://www.w3.org/2000/svg" width="75" height="56" viewBox="0 0 75 56">
    <path fill="#252529" fill-rule="nonzero" d="M67.904 10.898c-3.856 0-7.042 3.186-7.042 7.042 0 1.677.587 3.186 1.51 4.36l-11.486 6.12-9.724-14.504c2.095-1.341 3.52-3.688 3.52-6.371A7.514 7.514 0 0 0 37.139 0a7.514 7.514 0 0 0-7.545 7.545 7.466 7.466 0 0 0 3.437 6.287L22.55 28.42l-10.31-5.868c1.09-1.258 1.844-2.85 1.844-4.695 0-3.856-3.186-7.042-7.042-7.042S0 14 0 17.856c0 3.186 2.18 5.869 5.114 6.707l3.605 26.91C9.138 54.072 11.317 56 13.916 56H60.36c2.6 0 4.863-1.928 5.198-4.527l3.605-26.659c3.27-.586 5.784-3.437 5.784-6.874a7.03 7.03 0 0 0-7.042-7.042zM37.138 5.03c1.425 0 2.515 1.09 2.515 2.515 0 1.174-.755 2.096-1.845 2.431-.167-.084-.419-.084-.586-.084-.252 0-.42 0-.671.084-1.09-.251-1.844-1.257-1.844-2.431-.084-1.425 1.006-2.515 2.43-2.515zm-11.82 28.168l11.736-16.432 10.898 16.348c.755 1.09 2.18 1.425 3.27.838l12.49-6.706-1.928 14.251H12.407l-1.844-14.084 11.485 6.54c1.174.586 2.515.25 3.27-.755zM7.041 15.928c1.09 0 2.012.922 2.012 2.012 0 1.09-.922 2.012-2.012 2.012-1.09 0-2.012-.922-2.012-2.012 0-1.09.922-2.012 2.012-2.012zM60.359 50.97H13.916c-.084 0-.251-.084-.251-.168l-.587-4.275h48.036l-.587 4.275a.18.18 0 0 1-.168.168zm7.545-31.102c-1.09 0-2.012-.922-2.012-2.012 0-1.09.922-2.012 2.012-2.012 1.09 0 2.012.922 2.012 2.012 0 1.09-.922 2.012-2.012 2.012z"/>
</svg>
