<svg xmlns="http://www.w3.org/2000/svg" width="64" height="56" viewBox="0 0 64 56">
    <g fill="#252529" fill-rule="nonzero">
        <path d="M41 56H23a8 8 0 0 1-8-8V8a8 8 0 0 1 8-8h18a8 8 0 0 1 8 8v40a8 8 0 0 1-8 8zM23 4a4 4 0 0 0-4 4v40a4 4 0 0 0 4 4h18a4 4 0 0 0 4-4V8a4 4 0 0 0-4-4H23z"/>
        <path d="M32 50a1.75 1.75 0 0 1-.39 0 2.38 2.38 0 0 1-.38-.11 2.23 2.23 0 0 1-.34-.19 1.77 1.77 0 0 1-.55-.55 1.67 1.67 0 0 1-.19-.34 1.8 1.8 0 0 1-.11-.38A1.7 1.7 0 0 1 30 48a2 2 0 0 1 .59-1.41 1.43 1.43 0 0 1 .3-.25 2.28 2.28 0 0 1 .34-.19 1.65 1.65 0 0 1 .38-.11 2 2 0 0 1 .78 0c.13.021.258.058.38.11.119.053.232.117.34.19.111.07.212.153.3.25A2 2 0 0 1 34 48a2 2 0 0 1-2 2zM56 51H45V6h11a8 8 0 0 1 8 8v29a8 8 0 0 1-8 8zm-7-4h7a4 4 0 0 0 4-4V14a4 4 0 0 0-4-4h-7v37zM19 51H8a8 8 0 0 1-8-8V14a8 8 0 0 1 8-8h11v45zM8 10a4 4 0 0 0-4 4v29a4 4 0 0 0 4 4h7V10H8z"/>
    </g>
</svg>
