<svg xmlns="http://www.w3.org/2000/svg" width="58" height="56" viewBox="0 0 58 56">
    <g fill="#252529" fill-rule="nonzero">
        <path d="M37.686 30.483c8.104 1.748 13.772 5.75 13.772 10.409 0 6.263-10.256 11.344-22.907 11.344-12.648 0-22.904-5.08-22.904-11.344 0-4.615 5.56-8.587 13.538-10.36.992-.218-.446-2.014-1.614-1.772C7.258 30.89.008 35.937.008 41.824c0 7.818 12.78 14.155 28.543 14.155 15.764 0 28.544-6.337 28.544-14.155 0-5.984-7.494-11.096-18.076-13.17-1.038-.202-2.318 1.615-1.333 1.829z"/>
        <path d="M35.52 34.13c2.682.907 4.418 2.355 4.418 3.996 0 2.75-4.891 4.98-10.928 4.98-6.037 0-10.928-2.23-10.928-4.98 0-1.298 1.09-2.478 2.876-3.363.766-.38-.345-2.566-1.426-2.152-3.602 1.383-5.933 3.571-5.933 6.037 0 4.185 6.695 7.577 14.952 7.577 8.26 0 14.956-3.392 14.956-7.577 0-2.721-2.832-5.102-7.085-6.435-.917-.287-1.668 1.657-.901 1.918z"/>
        <path d="M35.115 19.81c0-1.198.019-2.397-.005-3.595-.03-1.633-.756-2.895-2.302-3.456-2.834-1.024-5.732-1.016-8.568-.018-1.536.54-2.329 1.767-2.334 3.424-.01 2.428-.013 4.862.016 7.29.016 1.52.548 2.871 1.404 4.128.4.587.769 1.261.903 1.949.44 2.233.79 4.485 1.17 6.732-.693.403-1.128.932-1.128 1.52 0 1.246 1.918 2.26 4.28 2.26 2.366 0 4.283-1.014 4.283-2.26 0-.614-.469-1.17-1.22-1.578.248-1.557.464-3.118.772-4.662.253-1.254.601-2.5 1.043-3.698.396-1.07 1.217-2.018 1.428-3.103.314-1.606.25-3.284.35-4.928-.031-.002-.063-.005-.092-.005zM28.396 10.776c3.063-.034 5.313-2.318 5.294-5.376C33.674 2.47 31.285.067 28.393.07c-2.92.004-5.389 2.467-5.402 5.39-.013 2.943 2.437 5.35 5.405 5.316z"/>
    </g>
</svg>
