<svg xmlns="http://www.w3.org/2000/svg" width="57" height="56" viewBox="0 0 57 56">
    <g fill="#252529" fill-rule="nonzero">
        <path d="M28.622 29.41a1.41 1.41 0 0 0 1.41-1.41 1.41 1.41 0 0 0-1.41-1.409A1.41 1.41 0 0 0 27.213 28c0 .777.632 1.41 1.41 1.41zM29.618 23.486c.267-.266.413-.62.413-.996 0-.377-.146-.73-.413-.996-.531-.533-1.46-.533-1.992 0-.266.265-.413.62-.413.996s.147.73.413.996c.275.275.635.412.996.412s.722-.137.996-.412zM23.888 26.593a1.404 1.404 0 0 0 1.41-1.408 1.41 1.41 0 0 0-2.818 0 1.404 1.404 0 0 0 1.41 1.408zM22.892 31.804c.266.267.62.413.996.413.377 0 .73-.146.996-.413.267-.265.413-.62.413-.996s-.146-.73-.413-.996c-.532-.533-1.46-.532-1.992 0-.266.266-.413.62-.413.996 0 .377.147.73.413.996zM27.626 34.506c.266.267.62.414.996.414.377 0 .73-.147.996-.414.267-.265.413-.62.413-.996s-.146-.73-.413-.996c-.531-.532-1.46-.532-1.992 0-.266.266-.413.62-.413.996 0 .377.147.73.413.996zM32.345 31.804c.266.267.62.413.996.413s.73-.146.996-.413c.266-.265.413-.62.413-.996s-.147-.73-.413-.996c-.532-.532-1.46-.532-1.992 0-.267.266-.413.62-.413.996 0 .377.146.73.413.996zM33.34 26.594c.377 0 .73-.147.997-.413.266-.266.413-.62.413-.996a1.41 1.41 0 1 0-2.405.996c.266.266.62.413.996.413zM22.704 20.103a1.399 1.399 0 0 0 1.07.14c.363-.097.667-.33.855-.656.188-.326.238-.705.14-1.069a1.41 1.41 0 1 0-2.065 1.585zM27.918 18.655a1.41 1.41 0 0 0 1.925-.516 1.41 1.41 0 1 0-1.925.516zM18.816 23.907a1.41 1.41 0 1 0 0 0zM18.632 29.348a1.41 1.41 0 0 0 .34-2.581 1.41 1.41 0 1 0-.34 2.581zM18.816 34.387a1.409 1.409 0 1 0 0 0zM22.73 38.25a1.4 1.4 0 0 0 1.069.14 1.41 1.41 0 0 0 .34-2.581 1.41 1.41 0 0 0-2.066 1.585 1.4 1.4 0 0 0 .657.856zM27.918 39.763a1.41 1.41 0 0 0 1.41-2.44 1.41 1.41 0 0 0-1.926.515 1.41 1.41 0 0 0 .516 1.925zM33.181 38.25a1.4 1.4 0 0 0 1.07.14 1.4 1.4 0 0 0 .855-.657 1.4 1.4 0 0 0 .14-1.068 1.41 1.41 0 1 0-2.065 1.585zM39.045 34.018c.189-.326.238-.706.141-1.07a1.41 1.41 0 1 0-.14 1.07zM40.298 28.691c.188-.326.238-.705.14-1.069a1.396 1.396 0 0 0-.656-.855 1.397 1.397 0 0 0-1.069-.14 1.4 1.4 0 0 0-.855.656 1.398 1.398 0 0 0-.14 1.069c.096.364.329.667.655.855a1.4 1.4 0 0 0 1.07.141 1.4 1.4 0 0 0 .855-.657zM38.53 21.467a1.398 1.398 0 0 0-1.07-.141 1.41 1.41 0 0 0 .362 2.77c.488 0 .963-.254 1.223-.705a1.4 1.4 0 0 0 .141-1.069 1.4 1.4 0 0 0-.657-.855zM32.666 18.178a1.41 1.41 0 0 0 1.585 2.066 1.4 1.4 0 0 0 .855-.657 1.4 1.4 0 0 0 .14-1.069 1.41 1.41 0 0 0-2.581-.34zM43.406 27.004a1.41 1.41 0 0 0 .996 2.405c.376 0 .73-.147.996-.413s.413-.62.413-.996-.147-.73-.413-.996c-.532-.532-1.46-.532-1.992 0zM36.573 43.092c.376 0 .73-.146.996-.413.266-.266.413-.62.413-.996s-.147-.73-.413-.996c-.532-.533-1.46-.533-1.992 0-.267.266-.414.62-.414.996 0 .377.147.73.414.996.265.267.62.413.996.413zM25.814 44.948a1.405 1.405 0 0 0 1.409-1.408c0-.376-.147-.73-.413-.996-.532-.533-1.46-.533-1.992 0a1.41 1.41 0 0 0 .996 2.404zM12.848 32.317a1.412 1.412 0 0 0 0 1.993c.275.274.635.412.996.412s.722-.138.996-.412a1.411 1.411 0 0 0 0-1.993 1.411 1.411 0 0 0-1.992 0zM24.818 11.464a1.41 1.41 0 0 0 .996 2.405 1.41 1.41 0 0 0 .996-2.405c-.532-.532-1.46-.532-1.992 0zM36.573 15.726c.376 0 .73-.147.996-.413s.413-.62.413-.996a1.41 1.41 0 1 0-2.405.996c.265.266.62.413.996.413zM40.646 19.126a1.41 1.41 0 0 0 .997-2.404 1.412 1.412 0 0 0-1.993 0 1.41 1.41 0 0 0 .996 2.404zM42.506 21.69a1.41 1.41 0 0 0 .996 2.405 1.41 1.41 0 0 0 .997-2.404c-.533-.533-1.46-.533-1.993 0zM42.506 34.31c.275.274.636.412.996.412a1.406 1.406 0 0 0 .997-2.405 1.412 1.412 0 0 0-1.993 0 1.412 1.412 0 0 0 0 1.993zM40.646 39.463c.362 0 .723-.138.997-.412a1.412 1.412 0 0 0 0-1.993 1.412 1.412 0 0 0-1.993 0 1.412 1.412 0 0 0 0 1.993c.275.274.636.412.996.412zM31.301 44.948a1.41 1.41 0 0 0 .996-2.404c-.532-.533-1.46-.533-1.993 0a1.41 1.41 0 0 0 .997 2.404zM16.6 39.463c.36 0 .72-.138.996-.412a1.411 1.411 0 0 0 0-1.993 1.411 1.411 0 0 0-1.993 0 1.412 1.412 0 0 0 0 1.993c.275.274.636.412.997.412zM12.842 29.395a1.41 1.41 0 0 0 .996-2.404 1.41 1.41 0 0 0-1.992 1.992c.275.275.636.412.996.412zM12.848 23.486c.275.275.635.412.996.412a1.404 1.404 0 0 0 1.41-1.408 1.4 1.4 0 0 0-.414-.996c-.532-.533-1.46-.533-1.992 0a1.41 1.41 0 0 0 0 1.992zM15.603 18.714a1.4 1.4 0 0 0 .997.413c.376 0 .73-.147.996-.413s.412-.62.412-.996a1.41 1.41 0 0 0-2.405-.996 1.41 1.41 0 0 0 0 1.992zM19.776 13.32a1.41 1.41 0 0 0 .997 2.405 1.41 1.41 0 0 0 .996-2.404 1.41 1.41 0 0 0-1.993 0zM20.672 43.092c.376 0 .73-.146.996-.413.266-.266.413-.62.413-.996s-.147-.73-.413-.996c-.532-.533-1.46-.533-1.992 0a1.41 1.41 0 0 0 .996 2.405zM31.301 13.869a1.411 1.411 0 0 0 .996-2.405c-.532-.532-1.46-.532-1.993 0a1.411 1.411 0 0 0 .997 2.405zM19.11 7.467a1.41 1.41 0 0 0 .996 2.404 1.41 1.41 0 0 0 .996-2.404 1.41 1.41 0 0 0-1.992 0zM14.1 10.397a1.41 1.41 0 0 0 .997 2.405 1.41 1.41 0 0 0 .996-2.405c-.532-.533-1.46-.533-1.992 0zM12.602 15.57a1.41 1.41 0 0 0-2.818 0 1.404 1.404 0 0 0 1.41 1.408 1.404 1.404 0 0 0 1.408-1.409zM8.689 22.144a1.41 1.41 0 0 0 .996-2.404 1.41 1.41 0 0 0-1.992 0 1.41 1.41 0 0 0 .996 2.404zM6.44 25.441c-.266.266-.413.62-.413.996a1.406 1.406 0 0 0 1.409 1.408 1.406 1.406 0 0 0 1.41-1.408 1.41 1.41 0 0 0-2.405-.996zM8.833 31.064a1.41 1.41 0 0 0-1.993 0 1.411 1.411 0 0 0 0 1.993c.275.274.636.412.996.412.361 0 .722-.138.997-.412a1.411 1.411 0 0 0 0-1.993zM8.632 36.552c-.266.265-.413.62-.413.996s.147.73.413.996.62.413.996.413.73-.147.996-.413.413-.62.413-.996c0-.377-.147-.73-.413-.996-.532-.533-1.46-.533-1.992 0zM14.14 43.452a1.41 1.41 0 0 0-1.993-1.992c-.266.266-.413.62-.413.996 0 .377.147.73.413.996.266.267.62.413.996.413.377 0 .73-.146.996-.413zM18.598 45.049c-.533-.533-1.461-.533-1.993 0-.266.266-.412.62-.412.996s.146.73.412.996.62.413.996.413a1.41 1.41 0 0 0 .996-2.405zM21.865 47.325a1.411 1.411 0 0 0 0 1.993c.275.274.636.411.996.411.361 0 .722-.137.997-.411a1.411 1.411 0 0 0 0-1.993 1.41 1.41 0 0 0-1.993 0zM27.626 48.14a1.411 1.411 0 0 0 0 1.993c.275.274.635.412.996.412s.722-.138.996-.412a1.41 1.41 0 0 0 0-1.993 1.411 1.411 0 0 0-1.992 0zM33.387 47.325a1.41 1.41 0 0 0 0 1.993c.275.274.636.411.996.411s.722-.137.996-.411a1.412 1.412 0 0 0 0-1.993 1.411 1.411 0 0 0-1.992 0zM38.606 45.049A1.41 1.41 0 0 0 40.6 47.04a1.41 1.41 0 0 0 0-1.992c-.532-.533-1.46-.533-1.993 0zM43.061 41.292c-.266.265-.413.62-.413.996s.147.73.413.996c.275.275.636.412.996.412a1.405 1.405 0 0 0 1.41-1.408 1.411 1.411 0 0 0-2.405-.996zM47.408 39.177a1.41 1.41 0 0 0 .996-2.404 1.411 1.411 0 0 0-1.992 0 1.41 1.41 0 0 0 .996 2.404zM50.432 31.262a1.411 1.411 0 0 0-1.992 0 1.41 1.41 0 0 0 .996 2.404 1.41 1.41 0 0 0 .996-2.404zM48.812 25.441a1.41 1.41 0 0 0 .996 2.404c.361 0 .722-.137.997-.411a1.41 1.41 0 0 0 0-1.993c-.533-.532-1.462-.532-1.993 0zM47.664 19.74a1.411 1.411 0 0 0 0 1.992c.275.275.635.412.996.412.36 0 .722-.137.996-.412a1.411 1.411 0 0 0 0-1.992 1.41 1.41 0 0 0-1.992 0zM46.007 16.978a1.41 1.41 0 0 0 .997-2.405 1.411 1.411 0 0 0-1.993 0 1.41 1.41 0 0 0 .996 2.405zM41.9 12.802c.375 0 .73-.147.995-.413.267-.266.413-.62.413-.996s-.146-.73-.413-.996c-.532-.533-1.46-.533-1.992 0-.266.266-.413.62-.413.996s.147.73.413.996.62.413.996.413zM37.097 9.871c.362 0 .723-.137.997-.412a1.411 1.411 0 0 0 0-1.992 1.41 1.41 0 0 0-1.993 0 1.411 1.411 0 0 0 0 1.992c.275.275.636.412.996.412zM31.628 8.272c.36 0 .722-.137.996-.412.266-.266.413-.62.413-.996 0-.377-.147-.73-.413-.996-.532-.533-1.46-.533-1.992 0-.266.265-.413.62-.413.996s.147.73.413.996c.274.275.635.412.996.412zM25.7 8.272a1.406 1.406 0 0 0 1.409-1.408 1.41 1.41 0 0 0-2.818 0A1.406 1.406 0 0 0 25.7 8.272zM19.723 4.069A1.404 1.404 0 0 0 21.13 2.66a1.4 1.4 0 0 0-.412-.996c-.533-.532-1.46-.532-1.992 0-.267.266-.413.62-.413.996 0 .377.146.73.413.997.274.274.635.412.996.412zM14.395 6.616a1.41 1.41 0 0 0 .996-2.405 1.41 1.41 0 0 0-2.404.996c0 .376.146.73.412.996s.62.413.996.413zM9.628 10.472a1.406 1.406 0 0 0 1.409-1.408 1.41 1.41 0 0 0-2.818 0 1.406 1.406 0 0 0 1.409 1.408zM5.83 15.121a1.41 1.41 0 0 0 .996-2.405c-.532-.532-1.46-.532-1.993 0a1.41 1.41 0 0 0 .996 2.405zM3.283 20.584c.36 0 .721-.137.996-.412a1.41 1.41 0 0 0 0-1.992c-.532-.532-1.46-.532-1.992 0a1.41 1.41 0 0 0 .996 2.404zM2.03 26.402c.361 0 .722-.137.997-.411a1.41 1.41 0 0 0 0-1.993c-.533-.532-1.461-.532-1.993 0a1.41 1.41 0 0 0 .996 2.404zM3.027 31.918a1.41 1.41 0 0 0-1.993-1.992c-.266.266-.412.62-.412.996s.146.73.412.996.62.413.996.413c.377 0 .73-.147.997-.413zM24.704 53.596a1.411 1.411 0 0 0 0 1.992c.275.275.635.412.996.412.36 0 .722-.137.996-.412a1.411 1.411 0 0 0 0-1.992 1.41 1.41 0 0 0-1.992 0zM30.632 53.596a1.41 1.41 0 0 0 0 1.992c.274.275.635.412.996.412a1.41 1.41 0 0 0 .996-2.404 1.411 1.411 0 0 0-1.992 0zM36.655 52.09a1.41 1.41 0 0 0 .997 2.405 1.41 1.41 0 0 0 .996-2.404 1.412 1.412 0 0 0-1.993 0zM41.809 49.586a1.412 1.412 0 0 0 0 1.993c.275.274.635.411.996.411.36 0 .722-.137.996-.411a1.412 1.412 0 0 0 0-1.993 1.412 1.412 0 0 0-1.992 0zM46.6 45.776a1.41 1.41 0 0 0 0 1.993c.275.274.635.411.996.411s.722-.137.997-.411a1.41 1.41 0 0 0 0-1.993 1.412 1.412 0 0 0-1.993 0zM50.419 41.292a1.41 1.41 0 0 0 .996 2.404 1.41 1.41 0 0 0 .997-2.404 1.412 1.412 0 0 0-1.993 0zM52.966 35.806c-.267.266-.413.62-.413.996 0 .377.146.73.413.996.266.267.62.413.996.413s.73-.146.996-.413c.266-.266.413-.62.413-.996s-.147-.73-.413-.996c-.532-.533-1.46-.533-1.992 0zM56.21 30.01a1.41 1.41 0 0 0-1.992 1.992c.275.275.635.412.996.412s.721-.137.996-.412a1.41 1.41 0 0 0 0-1.992zM54.218 23.998a1.411 1.411 0 0 0 0 1.993c.275.274.635.411.996.411a1.406 1.406 0 0 0 .996-2.404 1.41 1.41 0 0 0-1.992 0zM52.966 20.172c.274.275.635.412.996.412.36 0 .721-.137.996-.412.266-.266.413-.62.413-.996s-.147-.73-.413-.996c-.532-.532-1.46-.532-1.992 0-.267.266-.413.62-.413.996s.146.73.413.996zM51.164 15.12c.362 0 .722-.137.997-.412a1.411 1.411 0 0 0 0-1.992 1.41 1.41 0 0 0-1.993 0 1.411 1.411 0 0 0 0 1.992c.275.275.636.412.996.412zM47.596 10.622c.361 0 .722-.137.997-.411a1.41 1.41 0 0 0 0-1.993 1.412 1.412 0 0 0-1.993 0 1.41 1.41 0 0 0 .996 2.404zM42.805 6.615a1.41 1.41 0 0 0 .997-2.404 1.412 1.412 0 0 0-1.993 0 1.41 1.41 0 0 0 .996 2.404zM37.382 4.069c.36 0 .722-.138.996-.412.267-.266.413-.62.413-.997 0-.376-.146-.73-.413-.996-.531-.532-1.46-.532-1.992 0-.266.266-.413.62-.413.996 0 .377.147.73.413.997.275.274.636.412.996.412zM31.628 2.816c.36 0 .722-.137.996-.412.266-.266.413-.62.413-.996s-.147-.73-.413-.996c-.532-.532-1.46-.532-1.992 0-.266.266-.413.62-.413.996s.147.73.413.996c.274.275.635.412.996.412zM25.7 2.816a1.406 1.406 0 0 0 1.409-1.408 1.41 1.41 0 0 0-2.818 0A1.406 1.406 0 0 0 25.7 2.816zM18.727 52.344c-.267.265-.413.62-.413.996s.146.73.413.996c.265.266.62.413.996.413s.73-.147.996-.413.412-.62.412-.996c0-.377-.146-.73-.412-.996-.532-.533-1.46-.533-1.992 0zM13.4 49.586a1.411 1.411 0 0 0 0 1.993c.274.274.635.411.995.411.361 0 .722-.137.997-.411a1.412 1.412 0 0 0 0-1.993 1.411 1.411 0 0 0-1.993 0zM8.632 46.004a1.411 1.411 0 0 0 0 1.993c.274.274.635.411.996.411.36 0 .721-.137.996-.411a1.411 1.411 0 0 0 0-1.993 1.41 1.41 0 0 0-1.992 0zM4.833 41.292a1.411 1.411 0 0 0 0 1.992c.275.275.635.412.996.412a1.405 1.405 0 0 0 1.409-1.408 1.411 1.411 0 0 0-2.405-.996zM4.279 35.806c-.532-.533-1.46-.533-1.992 0-.266.266-.413.62-.413.996 0 .377.147.73.413.996.265.267.62.413.996.413s.73-.146.996-.413a1.41 1.41 0 0 0 0-1.992z"/>
    </g>
</svg>
