<svg xmlns="http://www.w3.org/2000/svg" width="63" height="56" viewBox="0 0 63 56">
    <path fill="#252529" fill-rule="nonzero" d="M31.025 12.055a2.795 2.795 0 0 0-1.872 3.479l2.485 8.25a2.788 2.788 0 0 0 3.48 1.871l8.249-2.485a2.795 2.795 0 0 0 1.871-3.48c-1.823-6.027-8.18-9.442-14.213-7.635zm3.576 10.386l-2.227-7.41a8.197 8.197 0 0 1 9.637 5.163l-7.41 2.247zm6.52 4.266a2.298 2.298 0 0 0-1.802-.213l-8.39 2.524-2.524-8.391a2.298 2.298 0 0 0-1.169-1.388 2.26 2.26 0 0 0-1.781-.103 12.677 12.677 0 0 0 4.447 24.566c1.02 0 2.038-.125 3.027-.374 6.692-1.71 10.801-8.442 9.263-15.175a2.26 2.26 0 0 0-1.072-1.446zm-8.992 13.51a9.456 9.456 0 0 1-6.52-17.628l2.454 8.159a2.414 2.414 0 0 0 3.001 1.613l8.165-2.427a9.508 9.508 0 0 1-7.1 10.283zm30.382-24.031a3.873 3.873 0 0 0-2.291-1.936l-5.164-1.633-3.124-9.883A3.918 3.918 0 0 0 47.013.191l-15.53 4.932L15.954.185a3.918 3.918 0 0 0-4.918 2.543l-3.143 9.889-5.164 1.633a3.918 3.918 0 0 0-2.543 4.918l2.82 8.83-2.8 8.824a3.924 3.924 0 0 0 2.542 4.918l5.164 1.633 3.143 9.882a3.924 3.924 0 0 0 3.731 2.73 3.93 3.93 0 0 0 1.188-.187l15.51-4.925 15.53 4.938c.99.321 2.067.23 2.989-.252a3.873 3.873 0 0 0 1.936-2.291l3.144-9.889 5.164-1.633a3.918 3.918 0 0 0 2.543-4.918l-2.827-8.83 2.807-8.824a3.873 3.873 0 0 0-.258-2.988zM14.101 3.709a.69.69 0 0 1 .865-.445l11.18 3.55-14.485 4.608 2.44-7.713zM3.728 38.668a.69.69 0 0 1-.445-.865l1.42-4.473 1.995 6.286-2.97-.948zM48.86 52.287a.69.69 0 0 1-.864.445l-11.18-3.55 14.49-4.608-2.446 7.713zm10.786-13.962a.684.684 0 0 1-.4.343L14.979 52.732a.69.69 0 0 1-.865-.445L3.277 18.193a.69.69 0 0 1 .451-.865l44.267-14.07a.684.684 0 0 1 .522.044c.165.084.288.231.342.407L59.69 37.803a.684.684 0 0 1-.045.522zM56.27 16.38l2.97.948a.69.69 0 0 1 .445.865l-1.42 4.473-1.995-6.286z"/>
</svg>
