<svg xmlns="http://www.w3.org/2000/svg" width="56" height="56" viewBox="0 0 56 56">
    <path fill="#252529" fill-rule="nonzero" d="M53.667 25.667h-14v-2.334h4.666A2.334 2.334 0 0 0 46.667 21v-4.667a2.334 2.334 0 0 0-4.667 0v2.334h-2.333a2.334 2.334 0 0 0-2.334-2.334V4.667H42A2.334 2.334 0 0 0 42 0h-7a2.334 2.334 0 0 0-2.333 2.333v14h-2.334v-14a2.334 2.334 0 0 0-4.666 0v14h-2.334V7a2.334 2.334 0 0 0-4.666 0v9.333a2.334 2.334 0 0 0-2.334 2.334H7a2.334 2.334 0 0 0 0 4.666h9.333v2.334h-14a2.334 2.334 0 0 0 0 4.666h14v2.334h-4.666A2.334 2.334 0 0 0 9.333 35v4.667a2.334 2.334 0 0 0 4.667 0v-2.334h2.333a2.334 2.334 0 0 0 2.334 2.334v11.666H14A2.334 2.334 0 0 0 14 56h7a2.334 2.334 0 0 0 2.333-2.333v-14h2.334v14a2.334 2.334 0 0 0 4.666 0v-14h2.334V49a2.334 2.334 0 0 0 4.666 0v-9.333a2.334 2.334 0 0 0 2.334-2.334H49a2.334 2.334 0 0 0 0-4.666h-9.333v-2.334h14a2.334 2.334 0 0 0 0-4.666zM34.994 35H21V28.006 28 21.006 21h14v14h-.006z"/>
</svg>
